<?xml version="1.0" standalone="no"?>
<!DOCTYPE svg PUBLIC "-//W3C//DTD SVG 1.1//EN"
  "http://www.w3.org/Graphics/SVG/1.1/DTD/svg11.dtd">
<svg width="183.32176208496094mm" height="170.74798583984375mm" viewBox="-333.6607666015625 196.62600708007812 183.32176208496094 170.74798583984375" xmlns="http://www.w3.org/2000/svg" version="1.1">
	<title>svgOutput</title>
	<desc>made with tinkercad</desc>
<path d="M -309.7139892578125 217.18699645996094 L -310.0090026855469 217.17300415039062 L -310.29998779296875 217.12899780273438 L -310.4645690917969 217.08799743652344 L -310.5849914550781 217.05799865722656 L -310.8630065917969 216.95899963378906 L -311.1289978027344 216.83299255371094 L -311.2959899902344 216.73226928710938 L -311.3810119628906 216.68099975585938 L -311.6180114746094 216.50599670410156 L -311.83599853515625 216.30799865722656 L -312.03399658203125 216.08999633789062 L -312.2090148925781 215.85400390625 L -312.3599853515625 215.6009979248047 L -312.4859924316406 215.3350067138672 L -312.5101318359375 215.26747131347656 L -312.52935791015625 215.2790069580078 L -312.5777893066406 215.3080291748047 L -312.6583251953125 215.35629272460938 L -312.7139892578125 215.38966369628906 L -314.722412109375 216.59349060058594 L -316.4100036621094 217.60499572753906 L -323.7139892578125 223.0218048095703 L -324.64599609375 223.71299743652344 L -325.7207336425781 224.68699645996094 L -325.7263488769531 224.69210815429688 L -325.7871398925781 224.74717712402344 L -325.83282470703125 224.78860473632812 L -325.8576965332031 224.81112670898438 L -325.85894775390625 224.81227111816406 L -325.843994140625 224.8159942626953 L -325.5660095214844 224.9149932861328 L -325.29998779296875 225.04100036621094 L -325.0480041503906 225.1929931640625 L -324.93017578125 225.27999877929688 L -324.8110046386719 225.3679962158203 L -324.5929870605469 225.5659942626953 L -324.3949890136719 225.78399658203125 L -324.2200012207031 226.02000427246094 L -324.0690002441406 226.2729949951172 L -323.9429931640625 226.53900146484375 L -323.843994140625 226.8159942626953 L -323.7720031738281 227.1020050048828 L -323.7386169433594 227.3280029296875 L -323.72900390625 227.39300537109375 L -323.7139892578125 227.68699645996094 L -323.72900390625 227.9810028076172 L -323.7523498535156 228.13900756835938 L -323.7720031738281 228.27200317382812 L -323.843994140625 228.55799865722656 L -323.9429931640625 228.8350067138672 L -324.0690002441406 229.1009979248047 L -324.2200012207031 229.35400390625 L -324.236328125 229.37600708007812 L -324.3949890136719 229.58999633789062 L -324.5929870605469 229.80799865722656 L -324.8110046386719 230.00599670410156 L -325.0480041503906 230.18099975585938 L -325.29998779296875 230.33299255371094 L -325.5660095214844 230.45899963378906 L -325.843994140625 230.55799865722656 L -326.1289978027344 230.62899780273438 L -326.4200134277344 230.67300415039062 L -326.7139892578125 230.68699645996094 L -326.8253479003906 230.6817169189453 L -326.822509765625 230.68699645996094 L -310.556884765625 260.935546875 L -308.6659851074219 259.8874816894531 L -307.5920104980469 259.29217529296875 L -304.5820007324219 257.6238098144531 L -303.5820007324219 257.06951904296875 L -301.0889892578125 255.68771362304688 L -301.0889892578125 255.6287841796875 L -300.66802978515625 255.45437622070312 L -300.4137268066406 255.34901428222656 L -300.0600891113281 255.2025146484375 L -299.8138732910156 254.98092651367188 L -299.6983642578125 254.8769989013672 L -299.6950378417969 254.87399291992188 L -299.3450012207031 254.5590057373047 L -295.3340148925781 251.593994140625 L -295.324462890625 251.58822631835938 L -290.9859924316406 248.96299743652344 L -287.8399963378906 247.42489624023438 L -286.3429870605469 246.6929931640625 L -281.4490051269531 244.8040008544922 L -276.35198974609375 243.31700134277344 L -271.10101318359375 242.24400329589844 L -265.7460021972656 241.5959930419922 L -262.1440124511719 241.451416015625 L -262.08099365234375 241.44888305664062 L -261.08099365234375 241.4087371826172 L -260.3399963378906 241.37899780273438 L -254.93299865722656 241.5959930419922 L -249.5780029296875 242.24400329589844 L -244.32699584960938 243.31700134277344 L -239.22999572753906 244.8040008544922 L -234.33599853515625 246.6929931640625 L -229.6929931640625 248.96299743652344 L -225.34500122070312 251.593994140625 L -225.28411865234375 251.63900756835938 L -222.58900451660156 253.63128662109375 L -221.33399963378906 254.5590057373047 L -220.9839630126953 254.87399291992188 L -220.74032592773438 255.09323120117188 L -220.5800018310547 255.15965270996094 L -220.2100372314453 255.3129425048828 L -216.58900451660156 258.4607849121094 L -215.37295532226562 259.5179138183594 L -215.19317626953125 259.3381042480469 L -214.34432983398438 260.412109375 L -210.33900451660156 265.47979736328125 L -207.50230407714844 269.0688781738281 L -204.6931915283203 272.6230773925781 L -204.25999450683594 273.1711730957031 L -202.70703125 275.1360168457031 L -202.89605712890625 275.3250427246094 L -202.78575134277344 275.4992370605469 L -202.0894775390625 276.5987854003906 L -199.7914581298828 280.22772216796875 L -199.1311492919922 281.27044677734375 L -198.65899658203125 283.09747314453125 L -198.08900451660156 285.3031311035156 L -197.13722229003906 288.986083984375 L -196.58900451660156 291.10748291015625 L -196.0919952392578 293.0306396484375 L -196.0919952392578 303.7524108886719 L -196.0919952392578 308.3739929199219 L -196.0919952392578 310.12701416015625 L -188.58900451660156 310.12701416015625 L -184.3419952392578 310.12701416015625 L -184.3419952392578 317.1490783691406 L -184.3419952392578 327.87701416015625 L -172.634521484375 327.87701416015625 L -166.33700561523438 327.87701416015625 L -166.33700561523438 315.54656982421875 L -166.33700561523438 310.12701416015625 L -160.0780029296875 310.12701416015625 L -159.0780029296875 310.12701416015625 L -158.08700561523438 310.12701416015625 L -158.08700561523438 290.12200927734375 L -158.14617919921875 290.12200927734375 L -158.23257446289062 290.12200927734375 L -158.1510009765625 290.0989990234375 L -159.15065002441406 285.332275390625 L -160.73553466796875 277.77490234375 L -162.72909545898438 268.268798828125 L -163.02999877929688 266.8340148925781 L -163.08700561523438 266.8500671386719 L -163.08700561523438 266.56219482421875 L -163.08700561523438 264.9568176269531 L -163.08700561523438 263.12200927734375 L -163.68138122558594 263.12200927734375 L -163.99908447265625 262.1440124511719 L -166.1263427734375 255.59567260742188 L -166.06272888183594 255.56600952148438 L -166.2239990234375 255.22500610351562 L -166.273681640625 255.1421356201172 L -166.29669189453125 255.0712890625 L -166.3780059814453 254.8209991455078 L -166.41012573242188 254.83143615722656 L -166.45181274414062 254.84498596191406 L -169.83900451660156 249.19497680664062 L -171.49600219726562 246.43099975585938 L -172.56341552734375 244.99147033691406 L -172.83900451660156 245.26705932617188 L -187.8802947998047 260.308837890625 L -188.58900451660156 261.0175476074219 L -189.7154083251953 262.1440124511719 L -193.65115356445312 266.0798645019531 L -194.07421875 266.5029296875 L -195.25624084472656 267.68499755859375 L -196.58900451660156 267.68499755859375 L -198.08900451660156 267.68499755859375 L -200.70257568359375 267.68499755859375 L -203.28485107421875 267.68499755859375 L -203.63052368164062 267.68499755859375 L -204.3419952392578 266.7848205566406 L -206.68841552734375 263.8160400390625 L -206.84019470214844 263.6239929199219 L -210.33900451660156 259.1971740722656 L -212.4197235107422 256.5645751953125 L -210.7292022705078 254.87399291992188 L -210.33900451660156 254.48379516601562 L -207.96531677246094 252.1100311279297 L -198.08900451660156 242.2333984375 L -196.58900451660156 240.7333526611328 L -196.31396484375 240.45831298828125 L -196.08900451660156 240.23333740234375 L -194.65870666503906 238.80300903320312 L -194.46499633789062 238.60928344726562 L -191.07899475097656 235.2231903076172 L -190.07899475097656 234.22314453125 L -188.88784790039062 233.03196716308594 L -188.58900451660156 232.7331085205078 L -185.51980590820312 229.66380310058594 L -188.58900451660156 226.88226318359375 L -188.60765075683594 226.8653564453125 L -188.65353393554688 226.82376098632812 L -188.67742919921875 226.8021240234375 L -188.68031311035156 226.79949951171875 L -188.6929931640625 226.8350067138672 L -188.81900024414062 227.1009979248047 L -188.97000122070312 227.35400390625 L -189.09153747558594 227.5178985595703 L -189.14500427246094 227.58999633789062 L -189.34300231933594 227.80799865722656 L -189.56100463867188 228.00599670410156 L -189.79800415039062 228.18099975585938 L -190.0500030517578 228.33299255371094 L -190.3159942626953 228.45899963378906 L -190.46400451660156 228.51170349121094 L -190.593994140625 228.55799865722656 L -190.87899780273438 228.62899780273438 L -191.1699981689453 228.67300415039062 L -191.46499633789062 228.68699645996094 L -191.75900268554688 228.67300415039062 L -192.0500030517578 228.62899780273438 L -192.3350067138672 228.55799865722656 L -192.51199340820312 228.49496459960938 L -192.61300659179688 228.45899963378906 L -192.87899780273438 228.33299255371094 L -193.13099670410156 228.18099975585938 L -193.3679962158203 228.00599670410156 L -193.58599853515625 227.80799865722656 L -193.78399658203125 227.58999633789062 L -193.95899963378906 227.35400390625 L -194.11000061035156 227.1009979248047 L -194.23599243164062 226.8350067138672 L -194.3350067138672 226.55799865722656 L -194.40699768066406 226.27200317382812 L -194.4499969482422 225.9810028076172 L -194.46499633789062 225.68699645996094 L -194.4499969482422 225.39300537109375 L -194.4333038330078 225.27999877929688 L -194.40699768066406 225.1020050048828 L -194.3350067138672 224.8159942626953 L -194.23599243164062 224.53900146484375 L -194.11000061035156 224.2729949951172 L -193.95899963378906 224.02000427246094 L -193.78399658203125 223.78399658203125 L -193.58599853515625 223.5659942626953 L -193.3679962158203 223.3679962158203 L -193.13099670410156 223.1929931640625 L -192.9413299560547 223.07859802246094 L -192.94796752929688 223.07366943359375 L -192.9838409423828 223.04705810546875 L -193.4692840576172 222.68699645996094 L -194.46499633789062 221.94847106933594 L -195.3042755126953 221.32595825195312 L -196.08900451660156 220.74392700195312 L -196.58900451660156 220.37307739257812 L -198.08900451660156 219.260498046875 L -200.3209991455078 217.60499572753906 L -209.11500549316406 212.33399963378906 L -210.33900451660156 211.7550811767578 L -213.21499633789062 210.39480590820312 L -213.2161865234375 210.3942413330078 L -213.22467041015625 210.39022827148438 L -213.22900390625 210.4810028076172 L -213.27200317382812 210.77200317382812 L -213.30120849609375 210.88800048828125 L -213.3153076171875 210.94400024414062 L -213.343994140625 211.05799865722656 L -213.4429931640625 211.3350067138672 L -213.56900024414062 211.6009979248047 L -213.72000122070312 211.85400390625 L -213.89500427246094 212.08999633789062 L -214.09300231933594 212.30799865722656 L -214.31100463867188 212.50599670410156 L -214.54800415039062 212.68099975585938 L -214.8000030517578 212.83299255371094 L -215.0659942626953 212.95899963378906 L -215.15866088867188 212.99200439453125 L -215.343994140625 213.05799865722656 L -215.62899780273438 213.12899780273438 L -215.9199981689453 213.17300415039062 L -216.21499633789062 213.18699645996094 L -216.50900268554688 213.17300415039062 L -216.58900451660156 213.16090393066406 L -216.8000030517578 213.12899780273438 L -217.0850067138672 213.05799865722656 L -217.2703399658203 212.99200439453125 L -217.36300659179688 212.95899963378906 L -217.62899780273438 212.83299255371094 L -217.88099670410156 212.68099975585938 L -218.1179962158203 212.50599670410156 L -218.33599853515625 212.30799865722656 L -218.53399658203125 212.08999633789062 L -218.70899963378906 211.85400390625 L -218.7429962158203 211.79702758789062 L -218.86000061035156 211.6009979248047 L -218.98599243164062 211.3350067138672 L -219.0850067138672 211.05799865722656 L -219.1136932373047 210.94400024414062 L -219.15699768066406 210.77200317382812 L -219.1999969482422 210.4810028076172 L -219.21499633789062 210.18699645996094 L -219.1999969482422 209.89300537109375 L -219.15699768066406 209.6020050048828 L -219.0850067138672 209.3159942626953 L -218.98599243164062 209.03900146484375 L -218.9182586669922 208.89599609375 L -218.86000061035156 208.7729949951172 L -218.7429962158203 208.57696533203125 L -218.70899963378906 208.52000427246094 L -218.53399658203125 208.28399658203125 L -218.33599853515625 208.0659942626953 L -218.26844787597656 208.00465393066406 L -218.28955078125 207.9946746826172 L -218.34088134765625 207.97039794921875 L -218.38400268554688 207.9499969482422 L -218.44578552246094 207.9279022216797 L -218.62408447265625 207.8640899658203 L -218.7429962158203 207.82154846191406 L -219.21499633789062 207.65264892578125 L -221.08900451660156 206.9821014404297 L -222.58900451660156 206.4453887939453 L -228.03700256347656 204.49600219726562 L -230.44996643066406 203.89166259765625 L -235.71499633789062 202.57302856445312 L -235.7325439453125 202.56863403320312 L -235.7402801513672 202.5666961669922 L -235.72900390625 202.64300537109375 L -235.71499633789062 202.93699645996094 L -235.72900390625 203.2310028076172 L -235.77200317382812 203.52200317382812 L -235.843994140625 203.80799865722656 L -235.89010620117188 203.93699645996094 L -235.9429931640625 204.0850067138672 L -236.06900024414062 204.3509979248047 L -236.22000122070312 204.60400390625 L -236.36534118652344 204.8000030517578 L -236.39500427246094 204.83999633789062 L -236.59300231933594 205.05799865722656 L -236.81100463867188 205.25599670410156 L -237.04800415039062 205.43099975585938 L -237.3000030517578 205.58299255371094 L -237.5659942626953 205.70899963378906 L -237.5679931640625 205.709716796875 L -237.843994140625 205.80799865722656 L -238.12899780273438 205.87899780273438 L -238.4199981689453 205.92300415039062 L -238.71499633789062 205.93699645996094 L -239.00900268554688 205.92300415039062 L -239.3000030517578 205.87899780273438 L -239.5850067138672 205.80799865722656 L -239.86300659179688 205.70899963378906 L -240.12899780273438 205.58299255371094 L -240.38099670410156 205.43099975585938 L -240.6179962158203 205.25599670410156 L -240.83599853515625 205.05799865722656 L -241.03399658203125 204.83999633789062 L -241.06365966796875 204.8000030517578 L -241.20899963378906 204.60400390625 L -241.36000061035156 204.3509979248047 L -241.48599243164062 204.0850067138672 L -241.5388946533203 203.93699645996094 L -241.5850067138672 203.80799865722656 L -241.65699768066406 203.52200317382812 L -241.6999969482422 203.2310028076172 L -241.71499633789062 202.93699645996094 L -241.6999969482422 202.64300537109375 L -241.65699768066406 202.3520050048828 L -241.5850067138672 202.0659942626953 L -241.52137756347656 201.88800048828125 L -241.48599243164062 201.78900146484375 L -241.36000061035156 201.5229949951172 L -241.34970092773438 201.5057373046875 L -241.38043212890625 201.5011749267578 L -241.44908142089844 201.49099731445312 L -241.56092834472656 201.4744110107422 L -241.71499633789062 201.45156860351562 L -248.125 200.50100708007812 L -258.3659973144531 199.9980010986328 L -258.7139892578125 200.0150909423828 L -258.76092529296875 200.01739501953125 L -258.8210144042969 200.02035522460938 L -258.8550720214844 200.0220184326172 L -258.8596496582031 200.02224731445312 L -258.843994140625 200.0659942626953 L -258.7720031738281 200.3520050048828 L -258.72900390625 200.64300537109375 L -258.72589111328125 200.70399475097656 L -258.7139892578125 200.93699645996094 L -258.72900390625 201.2310028076172 L -258.7720031738281 201.52200317382812 L -258.843994140625 201.80799865722656 L -258.9429931640625 202.0850067138672 L -259.0690002441406 202.3509979248047 L -259.2200012207031 202.60400390625 L -259.3949890136719 202.83999633789062 L -259.5929870605469 203.05799865722656 L -259.8110046386719 203.25599670410156 L -260.0480041503906 203.43099975585938 L -260.09600830078125 203.45994567871094 L -260.29998779296875 203.58299255371094 L -260.5660095214844 203.70899963378906 L -260.843994140625 203.80799865722656 L -261.1289978027344 203.87899780273438 L -261.4200134277344 203.92300415039062 L -261.7139892578125 203.93699645996094 L -262.0090026855469 203.92300415039062 L -262.08099365234375 203.912109375 L -262.1440124511719 203.902587890625 L -262.29998779296875 203.87899780273438 L -262.5849914550781 203.80799865722656 L -262.8630065917969 203.70899963378906 L -263.1289978027344 203.58299255371094 L -263.3810119628906 203.43099975585938 L -263.6180114746094 203.25599670410156 L -263.83599853515625 203.05799865722656 L -264.03399658203125 202.83999633789062 L -264.2090148925781 202.60400390625 L -264.3599853515625 202.3509979248047 L -264.4859924316406 202.0850067138672 L -264.5849914550781 201.80799865722656 L -264.6570129394531 201.52200317382812 L -264.70001220703125 201.2310028076172 L -264.7139892578125 200.93699645996094 L -264.7029113769531 200.70399475097656 L -264.70001220703125 200.64300537109375 L -264.6570129394531 200.3520050048828 L -264.6455383300781 200.30645751953125 L -264.67138671875 200.30772399902344 L -264.7139892578125 200.309814453125 L -268.6059875488281 200.50100708007812 L -278.74798583984375 202.0050048828125 L -284.2139892578125 203.3739776611328 L -284.2927551269531 203.39369201660156 L -284.4093017578125 203.42288208007812 L -284.50018310546875 203.44564819335938 L -284.5603332519531 203.46070861816406 L -284.5944519042969 203.46925354003906 L -284.6002197265625 203.470703125 L -284.5690002441406 203.5229949951172 L -284.4429931640625 203.78900146484375 L -284.343994140625 204.0659942626953 L -284.2720031738281 204.3520050048828 L -284.22900390625 204.64300537109375 L -284.2209777832031 204.8000030517578 L -284.2139892578125 204.93699645996094 L -284.22900390625 205.2310028076172 L -284.2720031738281 205.52200317382812 L -284.343994140625 205.80799865722656 L -284.3725891113281 205.88800048828125 L -284.4429931640625 206.0850067138672 L -284.5690002441406 206.3509979248047 L -284.7200012207031 206.60400390625 L -284.8949890136719 206.83999633789062 L -285.0929870605469 207.05799865722656 L -285.3110046386719 207.25599670410156 L -285.5480041503906 207.43099975585938 L -285.79998779296875 207.58299255371094 L -286.0660095214844 207.70899963378906 L -286.343994140625 207.80799865722656 L -286.6289978027344 207.87899780273438 L -286.7200012207031 207.89276123046875 L -286.9200134277344 207.92300415039062 L -287.2139892578125 207.93699645996094 L -287.5090026855469 207.92300415039062 L -287.5820007324219 207.91195678710938 L -287.79998779296875 207.87899780273438 L -287.8399963378906 207.86903381347656 L -288.0849914550781 207.80799865722656 L -288.3630065917969 207.70899963378906 L -288.6289978027344 207.58299255371094 L -288.76800537109375 207.49916076660156 L -288.8810119628906 207.43099975585938 L -289.1180114746094 207.25599670410156 L -289.33599853515625 207.05799865722656 L -289.53399658203125 206.83999633789062 L -289.7090148925781 206.60400390625 L -289.8599853515625 206.3509979248047 L -289.9859924316406 206.0850067138672 L -290.0849914550781 205.80799865722656 L -290.1570129394531 205.52200317382812 L -290.20001220703125 205.2310028076172 L -290.2091979980469 205.03810119628906 L -290.2139892578125 205.03982543945312 L -298.3479919433594 207.9499969482422 L -301.0889892578125 209.24656677246094 L -306.7139892578125 211.90733337402344 L -307.20001220703125 212.13722229003906 L -307.3937683105469 212.22886657714844 L -307.4249267578125 212.24362182617188 L -307.4296569824219 212.245849609375 L -307.3949890136719 212.28399658203125 L -307.2200012207031 212.52000427246094 L -307.20001220703125 212.5535125732422 L -307.0690002441406 212.7729949951172 L -306.96527099609375 212.99200439453125 L -306.9429931640625 213.03900146484375 L -306.843994140625 213.3159942626953 L -306.7720031738281 213.6020050048828 L -306.72900390625 213.89300537109375 L -306.7139892578125 214.18699645996094 L -306.72900390625 214.4810028076172 L -306.7720031738281 214.77200317382812 L -306.843994140625 215.05799865722656 L -306.9429931640625 215.3350067138672 L -307.0690002441406 215.6009979248047 L -307.20001220703125 215.82049560546875 L -307.2200012207031 215.85400390625 L -307.3949890136719 216.08999633789062 L -307.5929870605469 216.30799865722656 L -307.8110046386719 216.50599670410156 L -308.0480041503906 216.68099975585938 L -308.29998779296875 216.83299255371094 L -308.5660095214844 216.95899963378906 L -308.6659851074219 216.99461364746094 L -308.843994140625 217.05799865722656 L -308.96441650390625 217.08799743652344 L -309.1289978027344 217.12899780273438 L -309.4200134277344 217.17300415039062 L -309.7139892578125 217.18699645996094 M -309.5150146484375 210.32000732421875 L -308.6659851074219 209.91842651367188 L -306.77703857421875 209.02493286132812 L -299.9779968261719 205.8090057373047 L -296.84814453125 204.68914794921875 L -290.0450134277344 202.2550048828125 L -287.8399963378906 201.70272827148438 L -286.56390380859375 201.38311767578125 L -281.0337219238281 199.9980010986328 L -279.81201171875 199.69200134277344 L -269.3760070800781 198.1439971923828 L -262.1440124511719 197.78846740722656 L -258.8389892578125 197.62600708007812 L -248.30299377441406 198.1439971923828 L -237.86700439453125 199.69200134277344 L -236.645263671875 199.9980010986328 L -233.56625366210938 200.76918029785156 L -231.6864471435547 201.24000549316406 L -227.63400268554688 202.2550048828125 L -223.40768432617188 203.7671661376953 L -222.58900451660156 204.06008911132812 L -221.08900451660156 204.59678649902344 L -218.7429962158203 205.43617248535156 L -217.7010040283203 205.8090057373047 L -216.58900451660156 206.33497619628906 L -213.62615966796875 207.73638916015625 L -210.33900451660156 209.29122924804688 L -208.16400146484375 210.32000732421875 L -204.32537841796875 212.62071228027344 L -199.11599731445312 215.7429962158203 L -198.08900451660156 216.50457763671875 L -196.58900451660156 217.61692810058594 L -196.08900451660156 217.9877166748047 L -195.5707550048828 218.3720245361328 L -195.40896606445312 218.49200439453125 L -190.64199829101562 222.02699279785156 L -189.24766540527344 223.29075622558594 L -188.58900451660156 223.88775634765625 L -187.43887329101562 224.93017578125 L -182.8249969482422 229.11199951171875 L -180.02926635742188 232.19700622558594 L -175.74099731445312 236.9290008544922 L -173.35581970214844 240.14454650878906 L -172.83900451660156 240.84127807617188 L -171.87496948242188 242.1409149169922 L -169.83900451660156 244.8856658935547 L -169.45599365234375 245.40199279785156 L -164.0330047607422 254.4510040283203 L -162.83900451660156 256.9753112792969 L -161.33900451660156 260.1465759277344 L -160.3942108154297 262.1440124511719 L -159.52200317382812 263.9880065917969 L -159.29653930664062 264.6180725097656 L -155.96800231933594 273.9200134277344 L -155.7006378173828 274.9875793457031 L -154.7041778564453 278.9664306640625 L -153.40499877929688 284.15399169921875 L -153.33900451660156 284.5989074707031 L -151.85699462890625 294.5889892578125 L -151.33900451660156 305.1260070800781 L -151.85699462890625 315.6629943847656 L -152.07583618164062 317.13818359375 L -153.33900451660156 325.6531066894531 L -153.40499877929688 326.0979919433594 L -155.96800231933594 336.3320007324219 L -158.1683807373047 342.4818115234375 L -159.16741943359375 345.27398681640625 L -159.52200317382812 346.2650146484375 L -160.33900451660156 347.9920959472656 L -161.33900451660156 350.1060485839844 L -161.59585571289062 350.64898681640625 L -161.8072967529297 351.09600830078125 L -162.83900451660156 353.2769470214844 L -164.0330047607422 355.8009948730469 L -169.45599365234375 364.8500061035156 L -169.48036193847656 364.8828430175781 L -169.83900451660156 365.3663330078125 L -170.0334930419922 365.6285400390625 L -170.58645629882812 366.3739929199219 L -172.83900451660156 366.3739929199219 L -180.23736572265625 366.3739929199219 L -183.96246337890625 366.3739929199219 L -185.48568725585938 366.3739929199219 L -188.58900451660156 366.3739929199219 L -189.9464874267578 366.3739929199219 L -196.08900451660156 366.3739929199219 L -196.58900451660156 366.3739929199219 L -198.08900451660156 366.3739929199219 L -210.33900451660156 366.3739929199219 L -216.33900451660156 366.3739929199219 L -216.58900451660156 366.3739929199219 L -221.08900451660156 366.3739929199219 L -222.58900451660156 366.3739929199219 L -231.69749450683594 366.3739929199219 L -237.47752380371094 366.3739929199219 L -240.82530212402344 366.3739929199219 L -254.56509399414062 366.3739929199219 L -254.97093200683594 366.3739929199219 L -260.45806884765625 366.3739929199219 L -262.1440124511719 366.3739929199219 L -269.73199462890625 366.3739929199219 L -287.8399963378906 366.3739929199219 L -288.3389892578125 366.3739929199219 L -288.3389892578125 354.9930114746094 L -288.3389892578125 353.00042724609375 L -288.3389892578125 350.64898681640625 L -288.3389892578125 350.03857421875 L -288.3389892578125 349.1966247558594 L -288.3389892578125 346.9731750488281 L -288.3389892578125 346.716796875 L -288.3389892578125 345.8345947265625 L -288.3389892578125 345.4728698730469 L -290.5559997558594 343.85101318359375 L -290.9101257324219 343.5341491699219 L -292.10186767578125 342.4678649902344 L -293.8420104980469 340.91094970703125 L -294.2130126953125 340.5790100097656 L -295.26739501953125 339.4312438964844 L -295.4203796386719 339.2646789550781 L -297.5329895019531 336.9649963378906 L -299.2449645996094 334.6874084472656 L -299.3420104980469 334.5583190917969 L -300.4809875488281 333.0429992675781 L -303.0320129394531 328.8500061035156 L -303.59478759765625 327.67999267578125 L -304.1660461425781 326.4923095703125 L -304.8398742675781 325.0914611816406 L -305.15899658203125 324.4280090332031 L -306.6771240234375 320.2705383300781 L -306.8420104980469 319.8190002441406 L -307.94036865234375 315.5512390136719 L -308.06500244140625 315.0669860839844 L -308.6659851074219 311.1916809082031 L -308.789306640625 310.39654541015625 L -308.8169860839844 310.2179870605469 L -309.0899963378906 305.3179931640625 L -308.8810119628906 300.4159851074219 L -308.6659851074219 298.8975524902344 L -308.1929931640625 295.5570068359375 L -308.0359191894531 294.9119873046875 L -307.2449645996094 291.6643981933594 L -307.0320129394531 290.7900085449219 L -306.0873718261719 288.0946350097656 L -305.40899658203125 286.15899658203125 L -304.74163818359375 284.7236633300781 L -303.3399963378906 281.7090148925781 L -303.23760986328125 281.53564453125 L -303.17535400390625 281.43017578125 L -303.4121398925781 280.9940185546875 L -303.7910461425781 280.296142578125 L -304.6100769042969 278.7876892089844 L -305.6216735839844 276.924560546875 L -306.8415832519531 274.6777648925781 L -308.3061828613281 271.9803771972656 L -308.6659851074219 271.317626953125 L -309.0899963378906 270.5367431640625 L -313.6468811035156 262.1440124511719 L -332.6607666015625 227.1248016357422 L -332.0561828613281 226.57675170898438 L -327.0369873046875 222.02699279785156 L -325.1513366699219 220.628662109375 L -318.56298828125 215.7429962158203 L -316.2428894042969 214.3524169921875 L -316.0340576171875 214.2272491455078 L -309.5150146484375 210.32000732421875 M -215.3990020751953 330.39801025390625 L -216.33900451660156 331.8007507324219 L -216.58900451660156 332.173828125 L -217.73699951171875 333.8869934082031 L -218.7429962158203 335.1146545410156 L -218.7547149658203 335.1289367675781 L -219.47412109375 336.0068664550781 L -219.41671752929688 336.1454162597656 L -219.19927978515625 336.67034912109375 L -218.8293914794922 337.56329345703125 L -218.7429962158203 337.7718505859375 L -218.30653381347656 338.8255310058594 L -217.6243133544922 340.4724426269531 L -216.7669677734375 342.54217529296875 L -216.58900451660156 342.9718017578125 L -216.33900451660156 343.5753173828125 L -215.80104064941406 344.8739929199219 L -215.7111358642578 345.0910339355469 L -215.63534545898438 345.27398681640625 L -215.0531463623047 346.6794738769531 L -213.65113830566406 345.27398681640625 L -213.3040008544922 344.9259948730469 L -213.26138305664062 344.8739929199219 L -213.0863800048828 344.6604309082031 L -210.33900451660156 341.30792236328125 L -210.00799560546875 340.90399169921875 L -207.0850067138672 336.54400634765625 L -204.56300354003906 331.88800048828125 L -202.76422119140625 327.67999267578125 L -202.46499633789062 326.9800109863281 L -200.81199645996094 321.8689880371094 L -199.61900329589844 316.60400390625 L -198.8990020751953 311.2340087890625 L -198.69015502929688 306.5157165527344 L -198.65899658203125 305.81201171875 L -198.8990020751953 300.3900146484375 L -199.61900329589844 295.02099609375 L -200.52175903320312 291.03619384765625 L -200.81199645996094 289.7550048828125 L -202.46499633789062 284.6440124511719 L -204.56300354003906 279.73699951171875 L -207.0850067138672 275.08099365234375 L -208.65699768066406 272.7356262207031 L -210.00799560546875 270.7200012207031 L -210.33900451660156 270.31610107421875 L -213.3040008544922 266.697998046875 L -214.12733459472656 265.87261962890625 L -215.671142578125 269.5995788574219 L -216.33900451660156 271.21185302734375 L -216.58900451660156 271.8153991699219 L -216.9423370361328 272.6684265136719 L -217.77456665039062 274.6775207519531 L -218.28240966796875 275.9035339355469 L -218.5437469482422 276.534423828125 L -218.60401916503906 276.679931640625 L -217.73699951171875 277.7380065917969 L -217.67784118652344 277.8262634277344 L -216.58900451660156 279.45068359375 L -216.33900451660156 279.8236389160156 L -215.3990020751953 281.22601318359375 L -213.38099670410156 284.95098876953125 L -212.03700256347656 288.0936584472656 L -211.83700561523438 288.56134033203125 L -211.70199584960938 288.87701416015625 L -210.3800048828125 292.96600341796875 L -210.33900451660156 293.1470642089844 L -209.93934631347656 294.9119873046875 L -209.42599487304688 297.1789855957031 L -208.85000610351562 301.4739990234375 L -208.65699768066406 305.81201171875 L -208.85000610351562 310.1499938964844 L -209.42599487304688 314.4460144042969 L -210.33900451660156 318.47698974609375 L -210.3800048828125 318.6579895019531 L -210.52320861816406 319.1009521484375 L -211.70199584960938 322.74700927734375 L -213.38099670410156 326.6730041503906 L -213.92654418945312 327.67999267578125 L -215.3990020751953 330.39801025390625 M -235.0093536376953 344.8739929199219 L -234.79080200195312 344.8739929199219 L -234.7559051513672 344.8739929199219 L -234.7279815673828 344.84429931640625 L -234.428466796875 344.5257263183594 L -232.03700256347656 343.0920104980469 L -228.49000549316406 340.46099853515625 L -225.21800231933594 337.4960021972656 L -222.58900451660156 334.5948791503906 L -222.2519989013672 334.2229919433594 L -220.98899841308594 332.520263671875 L -219.62100219726562 330.6759948730469 L -218.7429962158203 329.21087646484375 L -217.8256072998047 327.67999267578125 L -217.3509979248047 326.88800048828125 L -216.85116577148438 325.8311462402344 L -216.58900451660156 325.2768249511719 L -216.33900451660156 324.74822998046875 L -215.48568725585938 322.9439697265625 L -215.46299743652344 322.89599609375 L -214.7358856201172 320.86419677734375 L -213.97500610351562 318.7380065917969 L -213.90025329589844 318.4395751953125 L -213.47413635253906 316.7383117675781 L -213.42999267578125 316.614990234375 L -212.54800415039062 313.0929870605469 L -212.01499938964844 309.5010070800781 L -211.83700561523438 305.8739929199219 L -212.01499938964844 302.24700927734375 L -212.54800415039062 298.6549987792969 L -212.775634765625 297.74603271484375 L -212.90199279785156 296.8940124511719 L -213.39842224121094 294.9119873046875 L -213.97500610351562 292.6099853515625 L -215.46299743652344 288.4519958496094 L -216.33900451660156 286.59979248046875 L -216.58900451660156 286.0711669921875 L -216.9392547607422 285.3305969238281 L -217.3509979248047 284.4599914550781 L -218.7429962158203 282.13714599609375 L -219.08900451660156 281.55975341796875 L -219.08900451660156 281.7603759765625 L -219.92100524902344 280.37200927734375 L -220.18238830566406 280.0196228027344 L -221.08900451660156 278.79736328125 L -222.552001953125 276.82501220703125 L -222.58900451660156 276.7841796875 L -225.51800537109375 273.552001953125 L -228.7899932861328 270.5870056152344 L -232.33700561523438 267.95599365234375 L -236.125 265.68499755859375 L -240.1179962158203 263.7969970703125 L -244.2760009765625 262.3089904785156 L -244.9347686767578 262.1440124511719 L -248.55999755859375 261.2359924316406 L -251.9910430908203 260.72698974609375 L -252.92799377441406 260.5880126953125 L -257.3389892578125 260.37200927734375 L -261.75 260.5880126953125 L -262.1440124511719 260.64642333984375 L -262.6871643066406 260.72698974609375 L -266.1189880371094 261.2359924316406 L -269.7442321777344 262.1440124511719 L -270.40301513671875 262.3089904785156 L -274.5610046386719 263.7969970703125 L -278.5539855957031 265.68499755859375 L -282.3420104980469 267.95599365234375 L -285.11248779296875 270.0110168457031 L -285.8890075683594 270.5870056152344 L -289.1610107421875 273.552001953125 L -292.12701416015625 276.82501220703125 L -294.75799560546875 280.37200927734375 L -297.02752685546875 284.1592102050781 L -297.02801513671875 284.1600036621094 L -297.12921142578125 284.3739929199219 L -297.15625 284.3739929199219 L -297.2039794921875 284.3739929199219 L -297.714111328125 284.3739929199219 L -297.4933776855469 284.76416015625 L -297.44317626953125 284.85284423828125 L -297.3955078125 284.9371032714844 L -297.873291015625 285.94732666015625 L -298.4594421386719 287.1866760253906 L -298.8243713378906 287.9582824707031 L -298.9159851074219 288.1520080566406 L -299.25390625 289.0964050292969 L -300.28875732421875 291.9888916015625 L -300.40399169921875 292.3110046386719 L -300.4181823730469 292.3676452636719 L -301.05560302734375 294.9119873046875 L -301.1730041503906 295.38055419921875 L -301.47698974609375 296.593994140625 L -302.0216979980469 300.2664794921875 L -302.0419921875 300.40338134765625 L -302.125 300.9630126953125 L -302.3420104980469 305.3739929199219 L -302.125 309.7850036621094 L -302.0419921875 310.3446044921875 L -301.69818115234375 312.66265869140625 L -301.47698974609375 314.15399169921875 L -301.1730041503906 315.36773681640625 L -300.85052490234375 316.6553039550781 L -300.40399169921875 318.43798828125 L -300.1430969238281 319.1670227050781 L -299.65472412109375 320.5317077636719 L -299.3830261230469 321.2909240722656 L -298.9159851074219 322.59600830078125 L -298.1242980957031 324.26995849609375 L -297.02801513671875 326.5880126953125 L -296.37359619140625 327.67999267578125 L -294.75799560546875 330.3760070800781 L -294.1321716308594 331.2196960449219 L -292.5577697753906 333.3422546386719 L -292.12701416015625 333.9230041503906 L -291.7000732421875 334.39410400390625 L -289.1610107421875 337.1960144042969 L -289.0036315917969 337.3385925292969 L -288.8609924316406 337.4960021972656 L -285.5889892578125 340.46099853515625 L -282.0419921875 343.0920104980469 L -278.97027587890625 344.93310546875 L -278.33575439453125 345.31341552734375 L -278.25299072265625 345.3630065917969 L -275.3883056640625 346.71783447265625 L -274.260986328125 347.2510070800781 L -272.3228454589844 347.9446105957031 L -271.11456298828125 348.37701416015625 L -270.1029968261719 348.739013671875 L -265.8190002441406 349.81201171875 L -263.5598449707031 350.1470642089844 L -262.1440124511719 350.3570556640625 L -261.45001220703125 350.4599914550781 L -257.608154296875 350.64898681640625 L -257.03900146484375 350.677001953125 L -256.4698486328125 350.64898681640625 L -252.6280059814453 350.4599914550781 L -249.97215270996094 350.0660095214844 L -249.62045288085938 350.0138244628906 L -248.25999450683594 349.81201171875 L -243.9759979248047 348.739013671875 L -242.96444702148438 348.37701416015625 L -241.8871307373047 347.991455078125 L -240.94427490234375 347.654052734375 L -239.8179931640625 347.2510070800781 L -237.1949462890625 346.0107421875 L -235.8249969482422 345.3630065917969 L -235.0093536376953 344.8739929199219 M -238.552001953125 202.7220001220703 L -238.5919952392578 202.6981964111328 L -238.593994140625 202.69700622558594 L -238.63900756835938 202.67599487304688 L -238.68499755859375 202.65899658203125 L -238.73300170898438 202.64700317382812 L -238.781005859375 202.63999938964844 L -238.8300018310547 202.63800048828125 L -238.87899780273438 202.63999938964844 L -238.92799377441406 202.64700317382812 L -238.97500610351562 202.65899658203125 L -239.02099609375 202.67599487304688 L -239.0659942626953 202.69700622558594 L -239.10800170898438 202.7220001220703 L -239.14700317382812 202.75100708007812 L -239.1481170654297 202.7519989013672 L -239.1840057373047 202.78399658203125 L -239.2169952392578 202.8209991455078 L -239.24600219726562 202.86000061035156 L -239.27099609375 202.90199279785156 L -239.29200744628906 202.9459991455078 L -239.3090057373047 202.9929962158203 L -239.3209991455078 203.0399932861328 L -239.3280029296875 203.08900451660156 L -239.3300018310547 203.13800048828125 L -239.3280029296875 203.18699645996094 L -239.3209991455078 203.23500061035156 L -239.31375122070312 203.26400756835938 L -239.3090057373047 203.2830047607422 L -239.29200744628906 203.32899475097656 L -239.27099609375 203.37399291992188 L -239.24600219726562 203.41600036621094 L -239.2169952392578 203.4550018310547 L -239.1840057373047 203.49099731445312 L -239.14700317382812 203.5240020751953 L -239.10800170898438 203.5540008544922 L -239.10400390625 203.55638122558594 L -239.0659942626953 203.57899475097656 L -239.02099609375 203.60000610351562 L -238.97500610351562 203.61599731445312 L -238.92799377441406 203.6280059814453 L -238.87899780273438 203.63499450683594 L -238.8300018310547 203.63800048828125 L -238.781005859375 203.63499450683594 L -238.73300170898438 203.6280059814453 L -238.68499755859375 203.61599731445312 L -238.63900756835938 203.60000610351562 L -238.593994140625 203.57899475097656 L -238.5919952392578 203.5778045654297 L -238.552001953125 203.5540008544922 L -238.51300048828125 203.5240020751953 L -238.4770050048828 203.49099731445312 L -238.44400024414062 203.4550018310547 L -238.41400146484375 203.41600036621094 L -238.38900756835938 203.37399291992188 L -238.3679962158203 203.32899475097656 L -238.3520050048828 203.2830047607422 L -238.3472442626953 203.26400756835938 L -238.33999633789062 203.23500061035156 L -238.33299255371094 203.18699645996094 L -238.3300018310547 203.13800048828125 L -238.33299255371094 203.08900451660156 L -238.33999633789062 203.0399932861328 L -238.3520050048828 202.9929962158203 L -238.3679962158203 202.9459991455078 L -238.38900756835938 202.90199279785156 L -238.41400146484375 202.86000061035156 L -238.44400024414062 202.8209991455078 L -238.4770050048828 202.78399658203125 L -238.51190185546875 202.7519989013672 L -238.51300048828125 202.75100708007812 L -238.552001953125 202.7220001220703 M -262.0429992675781 201.1959991455078 L -262.0498046875 201.21600341796875 L -262.0589904785156 201.2429962158203 L -262.0710144042969 201.2899932861328 L -262.0780029296875 201.33900451660156 L -262.08099365234375 201.38800048828125 L -262.0780029296875 201.43699645996094 L -262.0710144042969 201.48500061035156 L -262.0589904785156 201.5330047607422 L -262.0429992675781 201.57899475097656 L -262.0220031738281 201.6230010986328 L -261.99700927734375 201.66600036621094 L -261.9670104980469 201.7050018310547 L -261.9459228515625 201.72799682617188 L -261.9339904785156 201.74099731445312 L -261.89801025390625 201.7740020751953 L -261.8590087890625 201.8040008544922 L -261.8169860839844 201.82899475097656 L -261.7720031738281 201.85000610351562 L -261.72601318359375 201.86599731445312 L -261.6780090332031 201.8780059814453 L -261.6319885253906 201.88470458984375 L -261.6300048828125 201.88499450683594 L -261.58099365234375 201.88800048828125 L -261.5320129394531 201.88499450683594 L -261.4830017089844 201.8780059814453 L -261.4360046386719 201.86599731445312 L -261.3890075683594 201.85000610351562 L -261.3450012207031 201.82899475097656 L -261.3030090332031 201.8040008544922 L -261.2640075683594 201.7740020751953 L -261.22698974609375 201.74099731445312 L -261.215087890625 201.72799682617188 L -261.1940002441406 201.7050018310547 L -261.1650085449219 201.66600036621094 L -261.1400146484375 201.6230010986328 L -261.1199951171875 201.5811004638672 L -261.1189880371094 201.57899475097656 L -261.10198974609375 201.5330047607422 L -261.0899963378906 201.48500061035156 L -261.0830078125 201.43699645996094 L -261.08099365234375 201.38800048828125 L -261.0830078125 201.33900451660156 L -261.0899963378906 201.2899932861328 L -261.10198974609375 201.2429962158203 L -261.1189880371094 201.1959991455078 L -261.1199951171875 201.19390869140625 L -261.1400146484375 201.15199279785156 L -261.1650085449219 201.11000061035156 L -261.1940002441406 201.0709991455078 L -261.22698974609375 201.03399658203125 L -261.2640075683594 201.00100708007812 L -261.3030090332031 200.9720001220703 L -261.3450012207031 200.94700622558594 L -261.3890075683594 200.92599487304688 L -261.4360046386719 200.90899658203125 L -261.4830017089844 200.89700317382812 L -261.5320129394531 200.88999938964844 L -261.58099365234375 200.88800048828125 L -261.6300048828125 200.88999938964844 L -261.6319885253906 200.89028930664062 L -261.6780090332031 200.89700317382812 L -261.72601318359375 200.90899658203125 L -261.7720031738281 200.92599487304688 L -261.8169860839844 200.94700622558594 L -261.8590087890625 200.9720001220703 L -261.89801025390625 201.00100708007812 L -261.9339904785156 201.03399658203125 L -261.9670104980469 201.0709991455078 L -261.99700927734375 201.11000061035156 L -262.0220031738281 201.15199279785156 L -262.0429992675781 201.1959991455078 M -261.6780090332031 251.6300048828125 L -261.6319885253906 251.63670349121094 L -261.6300048828125 251.63699340820312 L -261.58099365234375 251.63900756835938 L -261.5320129394531 251.63699340820312 L -261.4830017089844 251.6300048828125 L -261.4360046386719 251.6179962158203 L -261.3890075683594 251.6009979248047 L -261.3450012207031 251.5800018310547 L -261.3030090332031 251.55499267578125 L -261.2640075683594 251.5260009765625 L -261.22698974609375 251.4929962158203 L -261.1940002441406 251.45700073242188 L -261.1650085449219 251.41700744628906 L -261.1501159667969 251.39199829101562 L -261.1400146484375 251.375 L -261.1199951171875 251.33309936523438 L -261.1189880371094 251.33099365234375 L -261.10198974609375 251.28399658203125 L -261.0899963378906 251.23699951171875 L -261.0830078125 251.18800354003906 L -261.08099365234375 251.13900756835938 L -261.0830078125 251.08999633789062 L -261.0899963378906 251.04200744628906 L -261.10198974609375 250.99400329589844 L -261.1189880371094 250.947998046875 L -261.1199951171875 250.94590759277344 L -261.1400146484375 250.9040069580078 L -261.154296875 250.8800048828125 L -261.1650085449219 250.86199951171875 L -261.1940002441406 250.82200622558594 L -261.22698974609375 250.78599548339844 L -261.2640075683594 250.7530059814453 L -261.3030090332031 250.7239990234375 L -261.3450012207031 250.697998046875 L -261.3890075683594 250.677001953125 L -261.4360046386719 250.66099548339844 L -261.4830017089844 250.6490020751953 L -261.5320129394531 250.64199829101562 L -261.58099365234375 250.63900756835938 L -261.6300048828125 250.64199829101562 L -261.6319885253906 250.6422882080078 L -261.6780090332031 250.6490020751953 L -261.72601318359375 250.66099548339844 L -261.7720031738281 250.677001953125 L -261.8169860839844 250.697998046875 L -261.8590087890625 250.7239990234375 L -261.89801025390625 250.7530059814453 L -261.9339904785156 250.78599548339844 L -261.9670104980469 250.82200622558594 L -261.99700927734375 250.86199951171875 L -262.0077209472656 250.8800048828125 L -262.0220031738281 250.9040069580078 L -262.0429992675781 250.947998046875 L -262.0589904785156 250.99400329589844 L -262.0710144042969 251.04200744628906 L -262.0780029296875 251.08999633789062 L -262.08099365234375 251.13900756835938 L -262.0780029296875 251.18800354003906 L -262.0710144042969 251.23699951171875 L -262.0589904785156 251.28399658203125 L -262.0429992675781 251.33099365234375 L -262.0220031738281 251.375 L -262.0118713378906 251.39199829101562 L -261.99700927734375 251.41700744628906 L -261.9670104980469 251.45700073242188 L -261.9339904785156 251.4929962158203 L -261.89801025390625 251.5260009765625 L -261.8590087890625 251.55499267578125 L -261.8169860839844 251.5800018310547 L -261.7720031738281 251.6009979248047 L -261.72601318359375 251.6179962158203 L -261.6780090332031 251.6300048828125 M -309.74798583984375 214.36000061035156 L -309.760009765625 214.38064575195312 L -309.77301025390625 214.4029998779297 L -309.79400634765625 214.44700622558594 L -309.8110046386719 214.4929962158203 L -309.81976318359375 214.5279998779297 L -309.822998046875 214.54100036621094 L -309.8299865722656 214.58900451660156 L -309.8320007324219 214.63800048828125 L -309.8299865722656 214.68699645996094 L -309.822998046875 214.73599243164062 L -309.8110046386719 214.7830047607422 L -309.79400634765625 214.8300018310547 L -309.77301025390625 214.87399291992188 L -309.74798583984375 214.91600036621094 L -309.718994140625 214.9550018310547 L -309.6860046386719 214.99200439453125 L -309.64898681640625 215.02499389648438 L -309.6288146972656 215.0399932861328 L -309.6099853515625 215.0540008544922 L -309.5679931640625 215.07899475097656 L -309.52398681640625 215.10000610351562 L -309.47698974609375 215.11700439453125 L -309.42999267578125 215.12899780273438 L -309.3810119628906 215.13600158691406 L -309.3320007324219 215.13800048828125 L -309.2829895019531 215.13600158691406 L -309.2349853515625 215.12899780273438 L -309.18701171875 215.11700439453125 L -309.1409912109375 215.10000610351562 L -309.09698486328125 215.07899475097656 L -309.0539855957031 215.0540008544922 L -309.0351867675781 215.0399932861328 L -309.0150146484375 215.02499389648438 L -308.97900390625 214.99200439453125 L -308.9460144042969 214.9550018310547 L -308.9169921875 214.91600036621094 L -308.8909912109375 214.87399291992188 L -308.8699951171875 214.8300018310547 L -308.85400390625 214.7830047607422 L -308.8420104980469 214.73599243164062 L -308.8349914550781 214.68699645996094 L -308.8320007324219 214.63800048828125 L -308.8349914550781 214.58900451660156 L -308.8420104980469 214.54100036621094 L -308.8452453613281 214.5279998779297 L -308.85400390625 214.4929962158203 L -308.8699951171875 214.44700622558594 L -308.8909912109375 214.4029998779297 L -308.9169921875 214.36000061035156 L -308.9460144042969 214.3209991455078 L -308.97900390625 214.28500366210938 L -309.0150146484375 214.2519989013672 L -309.0539855957031 214.2220001220703 L -309.09698486328125 214.19700622558594 L -309.1409912109375 214.17599487304688 L -309.18701171875 214.16000366210938 L -309.2349853515625 214.1479949951172 L -309.24798583984375 214.14610290527344 L -309.2829895019531 214.14100646972656 L -309.3320007324219 214.13800048828125 L -309.3810119628906 214.14100646972656 L -309.42999267578125 214.1479949951172 L -309.47698974609375 214.16000366210938 L -309.52398681640625 214.17599487304688 L -309.5679931640625 214.19700622558594 L -309.6099853515625 214.2220001220703 L -309.64898681640625 214.2519989013672 L -309.6860046386719 214.28500366210938 L -309.718994140625 214.3209991455078 L -309.74798583984375 214.36000061035156 M -196.58099365234375 337.1910095214844 L -196.57899475097656 337.1419982910156 L -196.58099365234375 337.0929870605469 L -196.58799743652344 337.0450134277344 L -196.58900451660156 337.0409851074219 L -196.60000610351562 336.99700927734375 L -196.60800170898438 336.975341796875 L -196.61700439453125 336.95098876953125 L -196.63800048828125 336.906005859375 L -196.64395141601562 336.89599609375 L -196.66299438476562 336.864013671875 L -196.69200134277344 336.82501220703125 L -196.72500610351562 336.7879943847656 L -196.76199340820312 336.7560119628906 L -196.80099487304688 336.72601318359375 L -196.84300231933594 336.70098876953125 L -196.88800048828125 336.67999267578125 L -196.9340057373047 336.66400146484375 L -196.9810028076172 336.6520080566406 L -197.02999877929688 336.6440124511719 L -197.07899475097656 336.6419982910156 L -197.1199951171875 336.6436767578125 L -197.1280059814453 336.6440124511719 L -197.17599487304688 336.6520080566406 L -197.2239990234375 336.66400146484375 L -197.27000427246094 336.67999267578125 L -197.31500244140625 336.70098876953125 L -197.35699462890625 336.72601318359375 L -197.39599609375 336.7560119628906 L -197.4320068359375 336.7879943847656 L -197.46499633789062 336.82501220703125 L -197.4949951171875 336.864013671875 L -197.51405334472656 336.89599609375 L -197.52000427246094 336.906005859375 L -197.54100036621094 336.95098876953125 L -197.5570068359375 336.99700927734375 L -197.56900024414062 337.0450134277344 L -197.57699584960938 337.0929870605469 L -197.57899475097656 337.1419982910156 L -197.57699584960938 337.1910095214844 L -197.56900024414062 337.239990234375 L -197.5570068359375 337.2869873046875 L -197.54100036621094 337.3330078125 L -197.52000427246094 337.37799072265625 L -197.50213623046875 337.4079895019531 L -197.4949951171875 337.4200134277344 L -197.46499633789062 337.4590148925781 L -197.4320068359375 337.4960021972656 L -197.39599609375 337.52899169921875 L -197.35699462890625 337.5580139160156 L -197.31500244140625 337.5830078125 L -197.27000427246094 337.60400390625 L -197.2239990234375 337.6210021972656 L -197.17599487304688 337.6319885253906 L -197.1280059814453 337.6400146484375 L -197.1199951171875 337.64031982421875 L -197.07899475097656 337.6419982910156 L -197.02999877929688 337.6400146484375 L -196.9810028076172 337.6319885253906 L -196.9340057373047 337.6210021972656 L -196.88800048828125 337.60400390625 L -196.84300231933594 337.5830078125 L -196.80099487304688 337.5580139160156 L -196.76199340820312 337.52899169921875 L -196.72500610351562 337.4960021972656 L -196.69200134277344 337.4590148925781 L -196.66299438476562 337.4200134277344 L -196.65585327148438 337.4079895019531 L -196.63800048828125 337.37799072265625 L -196.61700439453125 337.3330078125 L -196.60800170898438 337.30865478515625 L -196.60000610351562 337.2869873046875 L -196.58900451660156 337.2439270019531 L -196.58799743652344 337.239990234375 L -196.58099365234375 337.1910095214844 M -305.1659851074219 309.41900634765625 L -305.1520080566406 309.3954772949219 L -305.1409912109375 309.37701416015625 L -305.1199951171875 309.3330078125 L -305.10400390625 309.2860107421875 L -305.09429931640625 309.24798583984375 L -305.0920104980469 309.239013671875 L -305.0849914550781 309.19000244140625 L -305.0820007324219 309.1409912109375 L -305.0849914550781 309.0920104980469 L -305.0920104980469 309.04400634765625 L -305.10400390625 308.9960021972656 L -305.1199951171875 308.95001220703125 L -305.1409912109375 308.9049987792969 L -305.1520080566406 308.8865051269531 L -305.1659851074219 308.8630065917969 L -305.1960144042969 308.8240051269531 L -305.22900390625 308.7879943847656 L -305.2650146484375 308.7550048828125 L -305.3039855957031 308.7250061035156 L -305.34600830078125 308.70001220703125 L -305.3909912109375 308.6789855957031 L -305.43701171875 308.6629943847656 L -305.4849853515625 308.6510009765625 L -305.5329895019531 308.6440124511719 L -305.5820007324219 308.6409912109375 L -305.6310119628906 308.6440124511719 L -305.66400146484375 308.6487121582031 L -305.67999267578125 308.6510009765625 L -305.72698974609375 308.6629943847656 L -305.77301025390625 308.6789855957031 L -305.8179931640625 308.70001220703125 L -305.8599853515625 308.7250061035156 L -305.8742980957031 308.7359924316406 L -305.89898681640625 308.7550048828125 L -305.9360046386719 308.7879943847656 L -305.968994140625 308.8240051269531 L -305.99798583984375 308.8630065917969 L -306.02301025390625 308.9049987792969 L -306.04400634765625 308.95001220703125 L -306.0610046386719 308.9960021972656 L -306.072998046875 309.04400634765625 L -306.0799865722656 309.0920104980469 L -306.0820007324219 309.1409912109375 L -306.0799865722656 309.19000244140625 L -306.072998046875 309.239013671875 L -306.0707092285156 309.24798583984375 L -306.0610046386719 309.2860107421875 L -306.04400634765625 309.3330078125 L -306.02301025390625 309.37701416015625 L -305.99798583984375 309.41900634765625 L -305.968994140625 309.4580078125 L -305.9360046386719 309.4949951171875 L -305.89898681640625 309.52801513671875 L -305.8599853515625 309.5570068359375 L -305.8179931640625 309.5820007324219 L -305.77301025390625 309.6029968261719 L -305.72698974609375 309.6199951171875 L -305.67999267578125 309.6319885253906 L -305.66400146484375 309.63427734375 L -305.6310119628906 309.6390075683594 L -305.5820007324219 309.6409912109375 L -305.5329895019531 309.6390075683594 L -305.4849853515625 309.6319885253906 L -305.43701171875 309.6199951171875 L -305.3909912109375 309.6029968261719 L -305.34600830078125 309.5820007324219 L -305.3039855957031 309.5570068359375 L -305.2650146484375 309.52801513671875 L -305.22900390625 309.4949951171875 L -305.1960144042969 309.4580078125 L -305.1659851074219 309.41900634765625 M -286.69500732421875 205.0709991455078 L -286.7200012207031 205.04296875 L -286.7279968261719 205.03399658203125 L -286.7640075683594 205.00100708007812 L -286.8039855957031 204.9720001220703 L -286.84600830078125 204.94700622558594 L -286.8900146484375 204.92599487304688 L -286.9360046386719 204.90899658203125 L -286.9840087890625 204.8979949951172 L -287.0329895019531 204.88999938964844 L -287.0820007324219 204.88800048828125 L -287.1310119628906 204.88999938964844 L -287.1789855957031 204.8979949951172 L -287.22698974609375 204.90899658203125 L -287.23199462890625 204.9108428955078 L -287.27301025390625 204.92599487304688 L -287.3169860839844 204.94700622558594 L -287.3590087890625 204.9720001220703 L -287.39898681640625 205.00100708007812 L -287.43499755859375 205.03399658203125 L -287.4679870605469 205.0709991455078 L -287.49700927734375 205.11000061035156 L -287.52301025390625 205.15199279785156 L -287.54400634765625 205.19700622558594 L -287.55999755859375 205.2429962158203 L -287.5719909667969 205.2899932861328 L -287.57513427734375 205.31199645996094 L -287.5790100097656 205.33900451660156 L -287.5820007324219 205.38800048828125 L -287.5790100097656 205.43699645996094 L -287.5719909667969 205.48500061035156 L -287.55999755859375 205.5330047607422 L -287.54400634765625 205.57899475097656 L -287.52301025390625 205.62399291992188 L -287.49700927734375 205.66600036621094 L -287.4679870605469 205.7050018310547 L -287.43499755859375 205.74099731445312 L -287.39898681640625 205.7740020751953 L -287.3590087890625 205.8040008544922 L -287.3254089355469 205.82400512695312 L -287.3169860839844 205.82899475097656 L -287.27301025390625 205.85000610351562 L -287.22698974609375 205.86599731445312 L -287.1789855957031 205.8780059814453 L -287.1310119628906 205.88600158691406 L -287.0820007324219 205.88800048828125 L -287.0329895019531 205.88600158691406 L -286.9840087890625 205.8780059814453 L -286.9360046386719 205.86599731445312 L -286.8900146484375 205.85000610351562 L -286.84600830078125 205.82899475097656 L -286.83758544921875 205.82400512695312 L -286.8039855957031 205.8040008544922 L -286.7640075683594 205.7740020751953 L -286.7279968261719 205.74099731445312 L -286.7200012207031 205.73226928710938 L -286.69500732421875 205.7050018310547 L -286.6659851074219 205.66600036621094 L -286.6409912109375 205.62399291992188 L -286.6199951171875 205.57899475097656 L -286.6029968261719 205.5330047607422 L -286.59100341796875 205.48500061035156 L -286.5840148925781 205.43699645996094 L -286.5820007324219 205.38800048828125 L -286.5840148925781 205.33900451660156 L -286.5878601074219 205.31199645996094 L -286.59100341796875 205.2899932861328 L -286.6029968261719 205.2429962158203 L -286.6199951171875 205.19700622558594 L -286.6409912109375 205.15199279785156 L -286.6659851074219 205.11000061035156 L -286.69500732421875 205.0709991455078 M -246.62899780273438 359.6400146484375 L -246.5800018310547 359.64300537109375 L -246.531005859375 359.6400146484375 L -246.48300170898438 359.63299560546875 L -246.43499755859375 359.6210021972656 L -246.38900756835938 359.6050109863281 L -246.34500122070312 359.5840148925781 L -246.30299377441406 359.5580139160156 L -246.27200317382812 359.5355224609375 L -246.26300048828125 359.52899169921875 L -246.2270050048828 359.4960021972656 L -246.19400024414062 359.4599914550781 L -246.167236328125 359.42401123046875 L -246.1649932861328 359.4209899902344 L -246.13900756835938 359.37799072265625 L -246.1179962158203 359.3340148925781 L -246.1020050048828 359.2879943847656 L -246.08999633789062 359.239990234375 L -246.08299255371094 359.1919860839844 L -246.0800018310547 359.14300537109375 L -246.08299255371094 359.093994140625 L -246.08999633789062 359.0450134277344 L -246.1020050048828 358.99798583984375 L -246.1179962158203 358.95098876953125 L -246.13661193847656 358.9119873046875 L -246.13900756835938 358.9070129394531 L -246.1649932861328 358.864990234375 L -246.19400024414062 358.82598876953125 L -246.2270050048828 358.78900146484375 L -246.26300048828125 358.7560119628906 L -246.27200317382812 358.7494812011719 L -246.30299377441406 358.72698974609375 L -246.34500122070312 358.7019958496094 L -246.38900756835938 358.6809997558594 L -246.43499755859375 358.66400146484375 L -246.48300170898438 358.6520080566406 L -246.531005859375 358.6449890136719 L -246.5800018310547 358.64300537109375 L -246.62899780273438 358.6449890136719 L -246.67799377441406 358.6520080566406 L -246.7259979248047 358.66400146484375 L -246.77200317382812 358.6809997558594 L -246.78399658203125 358.6867370605469 L -246.8159942626953 358.7019958496094 L -246.85800170898438 358.72698974609375 L -246.8979949951172 358.7560119628906 L -246.9340057373047 358.78900146484375 L -246.9669952392578 358.82598876953125 L -246.99600219726562 358.864990234375 L -247.02099609375 358.9070129394531 L -247.0233917236328 358.9119873046875 L -247.04200744628906 358.95098876953125 L -247.0590057373047 358.99798583984375 L -247.0709991455078 359.0450134277344 L -247.0780029296875 359.093994140625 L -247.0800018310547 359.14300537109375 L -247.0780029296875 359.1919860839844 L -247.0709991455078 359.239990234375 L -247.0590057373047 359.2879943847656 L -247.04200744628906 359.3340148925781 L -247.02099609375 359.37799072265625 L -246.99600219726562 359.4209899902344 L -246.9937744140625 359.42401123046875 L -246.9669952392578 359.4599914550781 L -246.9340057373047 359.4960021972656 L -246.8979949951172 359.52899169921875 L -246.85800170898438 359.5580139160156 L -246.8159942626953 359.5840148925781 L -246.78399658203125 359.5992736816406 L -246.77200317382812 359.6050109863281 L -246.7259979248047 359.6210021972656 L -246.67799377441406 359.63299560546875 L -246.62899780273438 359.6400146484375 M -160.0749969482422 315.0920104980469 L -160.0780029296875 315.1409912109375 L -160.0749969482422 315.19000244140625 L -160.0679931640625 315.239013671875 L -160.05599975585938 315.2869873046875 L -160.0399932861328 315.3330078125 L -160.0189971923828 315.37701416015625 L -160.01007080078125 315.3919982910156 L -159.99400329589844 315.41900634765625 L -159.96400451660156 315.4590148925781 L -159.93099975585938 315.4949951171875 L -159.89500427246094 315.52801513671875 L -159.8560028076172 315.5570068359375 L -159.81300354003906 315.5820007324219 L -159.7689971923828 315.6029968261719 L -159.74400329589844 315.61224365234375 L -159.72300720214844 315.6199951171875 L -159.6750030517578 315.6319885253906 L -159.6269989013672 315.6390075683594 L -159.5780029296875 315.6409912109375 L -159.5290069580078 315.6390075683594 L -159.47999572753906 315.6319885253906 L -159.43299865722656 315.6199951171875 L -159.38600158691406 315.6029968261719 L -159.3419952392578 315.5820007324219 L -159.3000030517578 315.5570068359375 L -159.26100158691406 315.52801513671875 L -159.23199462890625 315.50213623046875 L -159.2239990234375 315.4949951171875 L -159.1909942626953 315.4590148925781 L -159.16200256347656 315.41900634765625 L -159.14593505859375 315.3919982910156 L -159.13699340820312 315.37701416015625 L -159.11599731445312 315.3330078125 L -159.0989990234375 315.2869873046875 L -159.08700561523438 315.239013671875 L -159.0800018310547 315.19000244140625 L -159.0780029296875 315.1409912109375 L -159.0800018310547 315.0920104980469 L -159.08700561523438 315.04400634765625 L -159.0989990234375 314.9960021972656 L -159.11599731445312 314.95001220703125 L -159.13699340820312 314.906005859375 L -159.13714599609375 314.90576171875 L -159.15248107910156 314.8800048828125 L -159.16200256347656 314.864013671875 L -159.1909942626953 314.8240051269531 L -159.2239990234375 314.7879943847656 L -159.23199462890625 314.7808532714844 L -159.26100158691406 314.7550048828125 L -159.3000030517578 314.72601318359375 L -159.3419952392578 314.70001220703125 L -159.38600158691406 314.6789855957031 L -159.43299865722656 314.6629943847656 L -159.47999572753906 314.6510009765625 L -159.5290069580078 314.6440124511719 L -159.5780029296875 314.6409912109375 L -159.6269989013672 314.6440124511719 L -159.6750030517578 314.6510009765625 L -159.72300720214844 314.6629943847656 L -159.74400329589844 314.6703186035156 L -159.7689971923828 314.6789855957031 L -159.81300354003906 314.70001220703125 L -159.8560028076172 314.72601318359375 L -159.89500427246094 314.7550048828125 L -159.93099975585938 314.7879943847656 L -159.96400451660156 314.8240051269531 L -159.99400329589844 314.864013671875 L -160.00352478027344 314.8800048828125 L -160.0189971923828 314.906005859375 L -160.0399932861328 314.95001220703125 L -160.05296325683594 314.9872741699219 L -160.05599975585938 314.9960021972656 L -160.0679931640625 315.04400634765625 L -160.0749969482422 315.0920104980469 M -164.5800018310547 343.6910095214844 L -164.5780029296875 343.6419982910156 L -164.5800018310547 343.5929870605469 L -164.5868377685547 343.552001953125 L -164.58799743652344 343.5450134277344 L -164.5989990234375 343.49700927734375 L -164.61599731445312 343.45098876953125 L -164.63699340820312 343.4070129394531 L -164.66200256347656 343.364013671875 L -164.6909942626953 343.32501220703125 L -164.7239990234375 343.28900146484375 L -164.76100158691406 343.2560119628906 L -164.8000030517578 343.22698974609375 L -164.8419952392578 343.20098876953125 L -164.86399841308594 343.19073486328125 L -164.88699340820312 343.17999267578125 L -164.93299865722656 343.16400146484375 L -164.97999572753906 343.1520080566406 L -165.0290069580078 343.1449890136719 L -165.0780029296875 343.1419982910156 L -165.1269989013672 343.1449890136719 L -165.1750030517578 343.1520080566406 L -165.22300720214844 343.16400146484375 L -165.2689971923828 343.17999267578125 L -165.31399536132812 343.20098876953125 L -165.3560028076172 343.22698974609375 L -165.37600708007812 343.24188232421875 L -165.39500427246094 343.2560119628906 L -165.4320068359375 343.28900146484375 L -165.44235229492188 343.3006286621094 L -165.46400451660156 343.32501220703125 L -165.49400329589844 343.364013671875 L -165.5189971923828 343.4070129394531 L -165.5399932861328 343.45098876953125 L -165.55599975585938 343.49700927734375 L -165.5679931640625 343.5450134277344 L -165.5691680908203 343.552001953125 L -165.5760040283203 343.5929870605469 L -165.5780029296875 343.6419982910156 L -165.5760040283203 343.6910095214844 L -165.5679931640625 343.739990234375 L -165.55599975585938 343.7869873046875 L -165.5399932861328 343.8340148925781 L -165.5189971923828 343.87799072265625 L -165.49400329589844 343.9200134277344 L -165.46400451660156 343.9590148925781 L -165.4320068359375 343.9960021972656 L -165.39500427246094 344.02899169921875 L -165.3560028076172 344.0580139160156 L -165.34591674804688 344.0639953613281 L -165.31399536132812 344.0830078125 L -165.2689971923828 344.10400390625 L -165.22300720214844 344.1210021972656 L -165.1750030517578 344.13299560546875 L -165.1269989013672 344.1400146484375 L -165.0780029296875 344.1419982910156 L -165.050537109375 344.140869140625 L -165.0290069580078 344.1400146484375 L -164.97999572753906 344.13299560546875 L -164.93299865722656 344.1210021972656 L -164.88699340820312 344.10400390625 L -164.8419952392578 344.0830078125 L -164.81007385253906 344.0639953613281 L -164.8000030517578 344.0580139160156 L -164.76100158691406 344.02899169921875 L -164.7239990234375 343.9960021972656 L -164.6909942626953 343.9590148925781 L -164.66200256347656 343.9200134277344 L -164.63699340820312 343.87799072265625 L -164.61599731445312 343.8340148925781 L -164.5989990234375 343.7869873046875 L -164.58799743652344 343.739990234375 L -164.5800018310547 343.6910095214844 M -216.3780059814453 210.88600158691406 L -216.32899475097656 210.88800048828125 L -216.27999877929688 210.88600158691406 L -216.23199462890625 210.8780059814453 L -216.1840057373047 210.86700439453125 L -216.13800048828125 210.85000610351562 L -216.093994140625 210.82899475097656 L -216.06399536132812 210.81114196777344 L -216.052001953125 210.8040008544922 L -216.01199340820312 210.77499389648438 L -215.9759979248047 210.74200439453125 L -215.9429931640625 210.7050018310547 L -215.91400146484375 210.66600036621094 L -215.88800048828125 210.62399291992188 L -215.8679962158203 210.57899475097656 L -215.8509979248047 210.5330047607422 L -215.83900451660156 210.48599243164062 L -215.83200073242188 210.43699645996094 L -215.83169555664062 210.4320068359375 L -215.82899475097656 210.38800048828125 L -215.83200073242188 210.33900451660156 L -215.83900451660156 210.29100036621094 L -215.8509979248047 210.2429962158203 L -215.8679962158203 210.19700622558594 L -215.88800048828125 210.15199279785156 L -215.91400146484375 210.11000061035156 L -215.9429931640625 210.0709991455078 L -215.9759979248047 210.03500366210938 L -216.01199340820312 210.0019989013672 L -216.052001953125 209.9720001220703 L -216.06399536132812 209.96485900878906 L -216.093994140625 209.94700622558594 L -216.13800048828125 209.92599487304688 L -216.15524291992188 209.9199981689453 L -216.1840057373047 209.91000366210938 L -216.23199462890625 209.8979949951172 L -216.27999877929688 209.88999938964844 L -216.32899475097656 209.88800048828125 L -216.3780059814453 209.88999938964844 L -216.427001953125 209.8979949951172 L -216.47500610351562 209.91000366210938 L -216.50375366210938 209.9199981689453 L -216.52099609375 209.92599487304688 L -216.56500244140625 209.94700622558594 L -216.5760040283203 209.95355224609375 L -216.58900451660156 209.96128845214844 L -216.60699462890625 209.9720001220703 L -216.64700317382812 210.0019989013672 L -216.68299865722656 210.03500366210938 L -216.71600341796875 210.0709991455078 L -216.7449951171875 210.11000061035156 L -216.77000427246094 210.15199279785156 L -216.79100036621094 210.19700622558594 L -216.80799865722656 210.2429962158203 L -216.82000732421875 210.29100036621094 L -216.82699584960938 210.33900451660156 L -216.82899475097656 210.38800048828125 L -216.82720947265625 210.4320068359375 L -216.82699584960938 210.43699645996094 L -216.82000732421875 210.48599243164062 L -216.80799865722656 210.5330047607422 L -216.79100036621094 210.57899475097656 L -216.77000427246094 210.62399291992188 L -216.7449951171875 210.66600036621094 L -216.71600341796875 210.7050018310547 L -216.68299865722656 210.74200439453125 L -216.64700317382812 210.77499389648438 L -216.60699462890625 210.8040008544922 L -216.58900451660156 210.81471252441406 L -216.5760040283203 210.82244873046875 L -216.56500244140625 210.82899475097656 L -216.52099609375 210.85000610351562 L -216.47500610351562 210.86700439453125 L -216.427001953125 210.8780059814453 L -216.3780059814453 210.88600158691406 M -206.30099487304688 358.72698974609375 L -206.33599853515625 358.7061767578125 L -206.34300231933594 358.7019958496094 L -206.38800048828125 358.6809997558594 L -206.4340057373047 358.66400146484375 L -206.48199462890625 358.6520080566406 L -206.52999877929688 358.6449890136719 L -206.57899475097656 358.64300537109375 L -206.6280059814453 358.6449890136719 L -206.677001953125 358.6520080566406 L -206.7239990234375 358.66400146484375 L -206.77099609375 358.6809997558594 L -206.81500244140625 358.7019958496094 L -206.84800720214844 358.7216491699219 L -206.85699462890625 358.72698974609375 L -206.89599609375 358.7560119628906 L -206.93299865722656 358.78900146484375 L -206.96600341796875 358.82598876953125 L -206.9949951171875 358.864990234375 L -207.02000427246094 358.9070129394531 L -207.0223846435547 358.9119873046875 L -207.04100036621094 358.95098876953125 L -207.05799865722656 358.99798583984375 L -207.07000732421875 359.0450134277344 L -207.07699584960938 359.093994140625 L -207.07899475097656 359.14300537109375 L -207.07699584960938 359.1919860839844 L -207.07000732421875 359.239990234375 L -207.05799865722656 359.2879943847656 L -207.04100036621094 359.3340148925781 L -207.02000427246094 359.37799072265625 L -206.9949951171875 359.4209899902344 L -206.99276733398438 359.42401123046875 L -206.96600341796875 359.4599914550781 L -206.93299865722656 359.4960021972656 L -206.89599609375 359.52899169921875 L -206.85699462890625 359.5580139160156 L -206.84800720214844 359.5635681152344 L -206.81500244140625 359.5840148925781 L -206.77099609375 359.6050109863281 L -206.7239990234375 359.6210021972656 L -206.677001953125 359.63299560546875 L -206.6280059814453 359.6400146484375 L -206.57899475097656 359.64300537109375 L -206.52999877929688 359.6400146484375 L -206.48199462890625 359.63299560546875 L -206.4340057373047 359.6210021972656 L -206.38800048828125 359.6050109863281 L -206.34300231933594 359.5840148925781 L -206.33599853515625 359.5796813964844 L -206.30099487304688 359.5580139160156 L -206.26199340820312 359.52899169921875 L -206.2259979248047 359.4960021972656 L -206.1929931640625 359.4599914550781 L -206.16531372070312 359.42401123046875 L -206.16299438476562 359.4209899902344 L -206.13800048828125 359.37799072265625 L -206.11700439453125 359.3340148925781 L -206.1009979248047 359.2879943847656 L -206.08900451660156 359.239990234375 L -206.08200073242188 359.1919860839844 L -206.07899475097656 359.14300537109375 L -206.08200073242188 359.093994140625 L -206.08900451660156 359.0450134277344 L -206.1009979248047 358.99798583984375 L -206.11700439453125 358.95098876953125 L -206.1356201171875 358.9119873046875 L -206.13800048828125 358.9070129394531 L -206.16299438476562 358.864990234375 L -206.1929931640625 358.82598876953125 L -206.2259979248047 358.78900146484375 L -206.26199340820312 358.7560119628906 L -206.30099487304688 358.72698974609375 M -280.0220031738281 358.9070129394531 L -280.0243835449219 358.9119873046875 L -280.0429992675781 358.95098876953125 L -280.05999755859375 358.99798583984375 L -280.0719909667969 359.0450134277344 L -280.0790100097656 359.093994140625 L -280.08099365234375 359.14300537109375 L -280.0790100097656 359.1919860839844 L -280.0719909667969 359.239990234375 L -280.05999755859375 359.2879943847656 L -280.0429992675781 359.3340148925781 L -280.0220031738281 359.37799072265625 L -279.99700927734375 359.4209899902344 L -279.9947814941406 359.42401123046875 L -279.9679870605469 359.4599914550781 L -279.93499755859375 359.4960021972656 L -279.89898681640625 359.52899169921875 L -279.8590087890625 359.5580139160156 L -279.8169860839844 359.5840148925781 L -279.77301025390625 359.6050109863281 L -279.72698974609375 359.6210021972656 L -279.6789855957031 359.63299560546875 L -279.6300048828125 359.6400146484375 L -279.58099365234375 359.64300537109375 L -279.552001953125 359.6412353515625 L -279.5320129394531 359.6400146484375 L -279.4840087890625 359.63299560546875 L -279.4360046386719 359.6210021972656 L -279.3900146484375 359.6050109863281 L -279.34600830078125 359.5840148925781 L -279.3039855957031 359.5580139160156 L -279.2640075683594 359.52899169921875 L -279.2279968261719 359.4960021972656 L -279.19500732421875 359.4599914550781 L -279.1682434082031 359.42401123046875 L -279.1659851074219 359.4209899902344 L -279.1400146484375 359.37799072265625 L -279.1189880371094 359.3340148925781 L -279.1029968261719 359.2879943847656 L -279.09100341796875 359.239990234375 L -279.0840148925781 359.1919860839844 L -279.08099365234375 359.14300537109375 L -279.0840148925781 359.093994140625 L -279.09100341796875 359.0450134277344 L -279.1029968261719 358.99798583984375 L -279.1189880371094 358.95098876953125 L -279.1376037597656 358.9119873046875 L -279.1400146484375 358.9070129394531 L -279.1659851074219 358.864990234375 L -279.19500732421875 358.82598876953125 L -279.2279968261719 358.78900146484375 L -279.2640075683594 358.7560119628906 L -279.3039855957031 358.72698974609375 L -279.34600830078125 358.7019958496094 L -279.3900146484375 358.6809997558594 L -279.4360046386719 358.66400146484375 L -279.4840087890625 358.6520080566406 L -279.5320129394531 358.6449890136719 L -279.552001953125 358.6441955566406 L -279.58099365234375 358.64300537109375 L -279.6300048828125 358.6449890136719 L -279.6789855957031 358.6520080566406 L -279.72698974609375 358.66400146484375 L -279.77301025390625 358.6809997558594 L -279.8169860839844 358.7019958496094 L -279.8590087890625 358.72698974609375 L -279.89898681640625 358.7560119628906 L -279.93499755859375 358.78900146484375 L -279.9679870605469 358.82598876953125 L -279.99700927734375 358.864990234375 L -280.0220031738281 358.9070129394531 M -326.6319885253906 227.14100646972656 L -326.656005859375 227.14450073242188 L -326.67999267578125 227.1479949951172 L -326.7279968261719 227.16000366210938 L -326.77398681640625 227.177001953125 L -326.8179931640625 227.197998046875 L -326.8609924316406 227.22300720214844 L -326.8999938964844 227.2519989013672 L -326.9360046386719 227.28500366210938 L -326.968994140625 227.3209991455078 L -326.9742431640625 227.3280029296875 L -326.9989929199219 227.36099243164062 L -327.02398681640625 227.4029998779297 L -327.0450134277344 227.44700622558594 L -327.0610046386719 227.4929962158203 L -327.072998046875 227.54100036621094 L -327.0799865722656 227.58999633789062 L -327.0830078125 227.63900756835938 L -327.0799865722656 227.68800354003906 L -327.072998046875 227.73599243164062 L -327.0610046386719 227.78399658203125 L -327.0450134277344 227.8300018310547 L -327.04022216796875 227.83999633789062 L -327.02398681640625 227.87399291992188 L -326.9989929199219 227.91600036621094 L -326.968994140625 227.95599365234375 L -326.9360046386719 227.99200439453125 L -326.8999938964844 228.02499389648438 L -326.8609924316406 228.0540008544922 L -326.8179931640625 228.0800018310547 L -326.77398681640625 228.1009979248047 L -326.7279968261719 228.11700439453125 L -326.67999267578125 228.12899780273438 L -326.656005859375 228.13250732421875 L -326.6319885253906 228.13600158691406 L -326.5830078125 228.13900756835938 L -326.53399658203125 228.13600158691406 L -326.4849853515625 228.12899780273438 L -326.43798828125 228.11700439453125 L -326.3909912109375 228.1009979248047 L -326.34698486328125 228.0800018310547 L -326.30499267578125 228.0540008544922 L -326.2659912109375 228.02499389648438 L -326.22900390625 227.99200439453125 L -326.1960144042969 227.95599365234375 L -326.1669921875 227.91600036621094 L -326.1419982910156 227.87399291992188 L -326.1257629394531 227.83999633789062 L -326.1210021972656 227.8300018310547 L -326.10400390625 227.78399658203125 L -326.0920104980469 227.73599243164062 L -326.0849914550781 227.68800354003906 L -326.0830078125 227.63900756835938 L -326.0849914550781 227.58999633789062 L -326.0920104980469 227.54100036621094 L -326.10400390625 227.4929962158203 L -326.1210021972656 227.44700622558594 L -326.1419982910156 227.4029998779297 L -326.1669921875 227.36099243164062 L -326.19091796875 227.3280029296875 L -326.1960144042969 227.3209991455078 L -326.22900390625 227.28500366210938 L -326.2659912109375 227.2519989013672 L -326.30499267578125 227.22300720214844 L -326.34698486328125 227.197998046875 L -326.3909912109375 227.177001953125 L -326.43798828125 227.16000366210938 L -326.4849853515625 227.1479949951172 L -326.53399658203125 227.14100646972656 L -326.5830078125 227.13900756835938 L -326.6319885253906 227.14100646972656 M -192.0760040283203 225.58999633789062 L -192.07899475097656 225.63900756835938 L -192.0760040283203 225.68800354003906 L -192.06900024414062 225.73599243164062 L -192.0570068359375 225.78399658203125 L -192.05421447753906 225.79200744628906 L -192.04100036621094 225.8300018310547 L -192.02000427246094 225.87399291992188 L -192 225.90631103515625 L -191.99400329589844 225.91600036621094 L -191.96499633789062 225.95599365234375 L -191.9320068359375 225.99200439453125 L -191.89599609375 226.02499389648438 L -191.85699462890625 226.0540008544922 L -191.81399536132812 226.0800018310547 L -191.77000427246094 226.1009979248047 L -191.7239990234375 226.11700439453125 L -191.67599487304688 226.12899780273438 L -191.6280059814453 226.13600158691406 L -191.57899475097656 226.13900756835938 L -191.52999877929688 226.13600158691406 L -191.48800659179688 226.1300048828125 L -191.4810028076172 226.12899780273438 L -191.4340057373047 226.11700439453125 L -191.38699340820312 226.1009979248047 L -191.34300231933594 226.0800018310547 L -191.30099487304688 226.0540008544922 L -191.26199340820312 226.02499389648438 L -191.22500610351562 225.99200439453125 L -191.19200134277344 225.95599365234375 L -191.16299438476562 225.91600036621094 L -191.13800048828125 225.87399291992188 L -191.11700439453125 225.8300018310547 L -191.1029510498047 225.79200744628906 L -191.10000610351562 225.78399658203125 L -191.08799743652344 225.73599243164062 L -191.08099365234375 225.68800354003906 L -191.07899475097656 225.63900756835938 L -191.08099365234375 225.58999633789062 L -191.08799743652344 225.54100036621094 L -191.10000610351562 225.4929962158203 L -191.11700439453125 225.44700622558594 L -191.13800048828125 225.4029998779297 L -191.16299438476562 225.36099243164062 L -191.19200134277344 225.3209991455078 L -191.22500610351562 225.28500366210938 L -191.23060607910156 225.27999877929688 L -191.26199340820312 225.2519989013672 L -191.30099487304688 225.22300720214844 L -191.34300231933594 225.197998046875 L -191.38699340820312 225.177001953125 L -191.4340057373047 225.16000366210938 L -191.4810028076172 225.1479949951172 L -191.48800659179688 225.14700317382812 L -191.52999877929688 225.14100646972656 L -191.57899475097656 225.13900756835938 L -191.6280059814453 225.14100646972656 L -191.67599487304688 225.1479949951172 L -191.7239990234375 225.16000366210938 L -191.77000427246094 225.177001953125 L -191.81399536132812 225.197998046875 L -191.85699462890625 225.22300720214844 L -191.89599609375 225.2519989013672 L -191.92654418945312 225.27999877929688 L -191.9320068359375 225.28500366210938 L -191.96499633789062 225.3209991455078 L -191.99400329589844 225.36099243164062 L -192.02000427246094 225.4029998779297 L -192.04100036621094 225.44700622558594 L -192.0570068359375 225.4929962158203 L -192.06900024414062 225.54100036621094 L -192.0760040283203 225.58999633789062 M -303.6199951171875 269.33099365234375 L -303.6134033203125 269.31201171875 L -303.60400390625 269.2850036621094 L -303.5920104980469 269.23699951171875 L -303.5840148925781 269.1889953613281 L -303.5820007324219 269.1400146484375 L -303.5840148925781 269.09100341796875 L -303.5920104980469 269.0419921875 L -303.60400390625 268.9949951171875 L -303.6199951171875 268.9490051269531 L -303.6409912109375 268.90399169921875 L -303.6659851074219 268.86199951171875 L -303.6960144042969 268.822998046875 L -303.7165222167969 268.79998779296875 L -303.72900390625 268.7860107421875 L -303.7650146484375 268.75299072265625 L -303.8039855957031 268.7239990234375 L -303.84600830078125 268.6990051269531 L -303.8909912109375 268.6780090332031 L -303.93701171875 268.6610107421875 L -303.9849853515625 268.6499938964844 L -304.0329895019531 268.6419982910156 L -304.0820007324219 268.6400146484375 L -304.12799072265625 268.6418762207031 L -304.1310119628906 268.6419982910156 L -304.17999267578125 268.6499938964844 L -304.22698974609375 268.6610107421875 L -304.27301025390625 268.6780090332031 L -304.3179931640625 268.6990051269531 L -304.3599853515625 268.7239990234375 L -304.39898681640625 268.75299072265625 L -304.4360046386719 268.7860107421875 L -304.448486328125 268.79998779296875 L -304.468994140625 268.822998046875 L -304.49798583984375 268.86199951171875 L -304.52301025390625 268.90399169921875 L -304.54400634765625 268.9490051269531 L -304.5610046386719 268.9949951171875 L -304.572998046875 269.0419921875 L -304.5799865722656 269.09100341796875 L -304.5820007324219 269.1400146484375 L -304.5799865722656 269.1889953613281 L -304.572998046875 269.23699951171875 L -304.5610046386719 269.2850036621094 L -304.551025390625 269.31201171875 L -304.54400634765625 269.33099365234375 L -304.52301025390625 269.3760070800781 L -304.49798583984375 269.4179992675781 L -304.468994140625 269.4570007324219 L -304.4360046386719 269.4939880371094 L -304.39898681640625 269.5260009765625 L -304.3599853515625 269.5559997558594 L -304.3179931640625 269.58099365234375 L -304.27301025390625 269.60198974609375 L -304.22698974609375 269.6180114746094 L -304.17999267578125 269.6300048828125 L -304.1310119628906 269.63800048828125 L -304.12799072265625 269.63812255859375 L -304.0820007324219 269.6400146484375 L -304.0329895019531 269.63800048828125 L -303.9849853515625 269.6300048828125 L -303.93701171875 269.6180114746094 L -303.8909912109375 269.60198974609375 L -303.84600830078125 269.58099365234375 L -303.8039855957031 269.5559997558594 L -303.7650146484375 269.5260009765625 L -303.72900390625 269.4939880371094 L -303.6960144042969 269.4570007324219 L -303.6659851074219 269.4179992675781 L -303.6409912109375 269.3760070800781 L -303.6199951171875 269.33099365234375 M -190.52999877929688 248.64199829101562 L -190.57899475097656 248.63900756835938 L -190.6280059814453 248.64199829101562 L -190.67599487304688 248.6490020751953 L -190.7239990234375 248.66099548339844 L -190.77000427246094 248.677001953125 L -190.81399536132812 248.697998046875 L -190.8560028076172 248.7239990234375 L -190.89599609375 248.7530059814453 L -190.9320068359375 248.78599548339844 L -190.96499633789062 248.82200622558594 L -190.9722442626953 248.83200073242188 L -190.99400329589844 248.86199951171875 L -191.02000427246094 248.9040069580078 L -191.04100036621094 248.947998046875 L -191.0570068359375 248.99400329589844 L -191.06900024414062 249.04200744628906 L -191.0760040283203 249.08999633789062 L -191.07899475097656 249.13900756835938 L -191.0760040283203 249.18800354003906 L -191.06900024414062 249.23699951171875 L -191.0570068359375 249.28399658203125 L -191.04100036621094 249.33099365234375 L -191.0347900390625 249.343994140625 L -191.02000427246094 249.375 L -190.99400329589844 249.41700744628906 L -190.9759979248047 249.4412078857422 L -190.96499633789062 249.45599365234375 L -190.9320068359375 249.4929962158203 L -190.89599609375 249.5260009765625 L -190.8560028076172 249.55499267578125 L -190.81399536132812 249.5800018310547 L -190.77000427246094 249.6009979248047 L -190.7239990234375 249.6179962158203 L -190.67599487304688 249.6300048828125 L -190.6280059814453 249.63699340820312 L -190.57899475097656 249.63900756835938 L -190.52999877929688 249.63699340820312 L -190.4810028076172 249.6300048828125 L -190.46400451660156 249.6256561279297 L -190.4340057373047 249.6179962158203 L -190.38699340820312 249.6009979248047 L -190.34300231933594 249.5800018310547 L -190.30099487304688 249.55499267578125 L -190.26100158691406 249.5260009765625 L -190.22500610351562 249.4929962158203 L -190.19200134277344 249.45599365234375 L -190.16299438476562 249.41700744628906 L -190.13800048828125 249.375 L -190.12319946289062 249.343994140625 L -190.11700439453125 249.33099365234375 L -190.10000610351562 249.28399658203125 L -190.08799743652344 249.23699951171875 L -190.08099365234375 249.18800354003906 L -190.07899475097656 249.13900756835938 L -190.08099365234375 249.08999633789062 L -190.08799743652344 249.04200744628906 L -190.10000610351562 248.99400329589844 L -190.11700439453125 248.947998046875 L -190.13800048828125 248.9040069580078 L -190.16299438476562 248.86199951171875 L -190.18475341796875 248.83200073242188 L -190.19200134277344 248.82200622558594 L -190.22500610351562 248.78599548339844 L -190.26100158691406 248.7530059814453 L -190.30099487304688 248.7239990234375 L -190.34300231933594 248.697998046875 L -190.38699340820312 248.677001953125 L -190.4340057373047 248.66099548339844 L -190.46400451660156 248.65333557128906 L -190.4810028076172 248.6490020751953 L -190.52999877929688 248.64199829101562 M -221.31500244140625 264.6990051269531 L -221.32339477539062 264.7040100097656 L -221.35699462890625 264.7239990234375 L -221.39700317382812 264.75299072265625 L -221.43299865722656 264.7860107421875 L -221.46600341796875 264.822998046875 L -221.4949951171875 264.86199951171875 L -221.52099609375 264.90399169921875 L -221.54200744628906 264.947998046875 L -221.55799865722656 264.9949951171875 L -221.57000732421875 265.0419921875 L -221.57699584960938 265.09100341796875 L -221.5800018310547 265.1400146484375 L -221.57699584960938 265.1889953613281 L -221.57305908203125 265.21600341796875 L -221.57000732421875 265.23699951171875 L -221.55799865722656 265.2850036621094 L -221.54200744628906 265.33099365234375 L -221.52099609375 265.3760070800781 L -221.4949951171875 265.4179992675781 L -221.46600341796875 265.4570007324219 L -221.43299865722656 265.4930114746094 L -221.39700317382812 265.5260009765625 L -221.35699462890625 265.5559997558594 L -221.31500244140625 265.58099365234375 L -221.27099609375 265.60198974609375 L -221.22500610351562 265.6180114746094 L -221.1840057373047 265.62823486328125 L -221.177001953125 265.6300048828125 L -221.12899780273438 265.6369934082031 L -221.0800018310547 265.6400146484375 L -221.031005859375 265.6369934082031 L -220.98199462890625 265.6300048828125 L -220.9340057373047 265.6180114746094 L -220.88800048828125 265.60198974609375 L -220.843994140625 265.58099365234375 L -220.802001953125 265.5559997558594 L -220.76199340820312 265.5260009765625 L -220.7259979248047 265.4930114746094 L -220.6929931640625 265.4570007324219 L -220.6719970703125 265.42877197265625 L -220.66400146484375 265.4179992675781 L -220.63900756835938 265.3760070800781 L -220.6179962158203 265.33099365234375 L -220.6009979248047 265.2850036621094 L -220.58900451660156 265.23699951171875 L -220.5859375 265.21600341796875 L -220.58200073242188 265.1889953613281 L -220.5800018310547 265.1400146484375 L -220.58200073242188 265.09100341796875 L -220.58900451660156 265.0419921875 L -220.6009979248047 264.9949951171875 L -220.6179962158203 264.947998046875 L -220.63900756835938 264.90399169921875 L -220.66400146484375 264.86199951171875 L -220.6719970703125 264.8512268066406 L -220.6929931640625 264.822998046875 L -220.7259979248047 264.7860107421875 L -220.76199340820312 264.75299072265625 L -220.802001953125 264.7239990234375 L -220.843994140625 264.6990051269531 L -220.88800048828125 264.6780090332031 L -220.9340057373047 264.6610107421875 L -220.98199462890625 264.64898681640625 L -221.031005859375 264.6419982910156 L -221.0800018310547 264.6400146484375 L -221.12899780273438 264.6419982910156 L -221.177001953125 264.64898681640625 L -221.1840057373047 264.6507568359375 L -221.22500610351562 264.6610107421875 L -221.27099609375 264.6780090332031 L -221.31500244140625 264.6990051269531 z" fill="none" stroke="rgb(0,0,255)" stroke-width="0.01mm" />
</svg>